# xmcd CD database file
#
# Track frame offsets:
#	150
#	16222
#	38315
#	54357
#	74170
#	92125
#	110935
#	132330
#	148152
#	167870
#	187355
#
# Disc length: 2725 seconds
#
# Revision: 1
# Processed by: cddbd v1.5.2PL0 Copyright (c) Steve Scherf et al.
# Submitted via: CDex 1.51
#
DISCID=a70aa30b
DTITLE=Arthur Adams - Back On Track
DYEAR=1999
DGENRE=Blues
TTITLE0=Back On Track
TTITLE1=Get You Next To Me
TTITLE2=Who Does She Think She Is
TTITLE3=The Long Haul
TTITLE4=No Big Deal
TTITLE5=Jumpin' The Gun
TTITLE6=You Really Got It Going On
TTITLE7=Good Good Good
TTITLE8=Rehabilitation Song
TTITLE9=Honda Betty
TTITLE10=Backup Man
EXTD=YEAR: 1999
EXTT0=
EXTT1=
EXTT2=
EXTT3=
EXTT4=
EXTT5=
EXTT6=
EXTT7=
EXTT8=
EXTT9=
EXTT10=
PLAYORDER=
